<mxfile host="app.diagrams.net" modified="2023-07-04T00:44:53.565Z" agent="Mozilla/5.0 (Windows NT 10.0; Win64; x64) AppleWebKit/537.36 (KHTML, like Gecko) Chrome/114.0.0.0 Safari/537.36" etag="PsK8bNQTTzWCpe6m2qLC" version="21.5.0" type="device">
  <diagram name="Page-1" id="c9db0220-8083-56f3-ca83-edcdcd058819">
    <mxGraphModel dx="2074" dy="756" grid="1" gridSize="10" guides="1" tooltips="1" connect="1" arrows="1" fold="1" page="1" pageScale="1.5" pageWidth="826" pageHeight="1169" background="#ffffff" math="0" shadow="0">
      <root>
        <mxCell id="0" style=";html=1;" />
        <mxCell id="1" style=";html=1;" parent="0" />
        <mxCell id="JPM-YJVF7ZxOukphyHkG-13" value="&lt;font color=&quot;#6c767d&quot;&gt;&lt;b&gt;&lt;font style=&quot;&quot;&gt;&lt;span style=&quot;font-size: 20px;&quot;&gt;Cadastro de Equipes&lt;/span&gt;&lt;br style=&quot;font-size: 10px&quot;&gt;&lt;br&gt;Nome da Equipe&lt;br&gt;&lt;/font&gt;&lt;/b&gt;&lt;/font&gt;&lt;br style=&quot;font-size: 14px&quot;&gt;" style="html=1;shadow=0;dashed=0;shape=mxgraph.bootstrap.rrect;rSize=5;strokeColor=#DFDFDF;html=1;whiteSpace=wrap;fillColor=#ffffff;fontColor=#000000;verticalAlign=top;align=left;spacing=20;fontSize=14;container=0;" vertex="1" parent="1">
          <mxGeometry x="120" y="70" width="580" height="550" as="geometry" />
        </mxCell>
        <mxCell id="JPM-YJVF7ZxOukphyHkG-17" value="" style="html=1;shadow=0;dashed=0;shape=mxgraph.bootstrap.rrect;rSize=5;strokeColor=#CED4DA;html=1;whiteSpace=wrap;fillColor=#FFFFFF;fontColor=#7D868C;align=left;spacing=15;fontSize=14;" vertex="1" parent="1">
          <mxGeometry x="140" y="160" width="400" height="40" as="geometry" />
        </mxCell>
        <mxCell id="JPM-YJVF7ZxOukphyHkG-1" value="Adicionar" style="html=1;shadow=0;dashed=0;shape=mxgraph.bootstrap.rrect;rSize=5;strokeColor=none;strokeWidth=1;fillColor=#33A64C;fontColor=#FFFFFF;whiteSpace=wrap;align=center;verticalAlign=middle;spacingLeft=0;fontStyle=0;fontSize=16;spacing=5;" vertex="1" parent="1">
          <mxGeometry x="560" y="160" width="90" height="40" as="geometry" />
        </mxCell>
        <mxCell id="JPM-YJVF7ZxOukphyHkG-22" value="Pesquisar" style="html=1;shadow=0;dashed=0;shape=mxgraph.bootstrap.rrect;rSize=5;strokeColor=none;strokeWidth=1;fillColor=#0085FC;fontColor=#FFFFFF;whiteSpace=wrap;align=center;verticalAlign=middle;spacingLeft=0;fontStyle=0;fontSize=16;spacing=5;" vertex="1" parent="1">
          <mxGeometry x="140" y="210" width="80" height="40" as="geometry" />
        </mxCell>
        <mxCell id="JPM-YJVF7ZxOukphyHkG-88" value="" style="shape=partialRectangle;html=1;whiteSpace=wrap;connectable=0;strokeColor=inherit;overflow=hidden;fillColor=none;top=0;left=0;bottom=0;right=0;pointerEvents=1;fontSize=16;fontColor=#0a0a0a;" vertex="1" parent="1">
          <mxGeometry x="700" y="330" width="187" height="40" as="geometry">
            <mxRectangle width="187" height="40" as="alternateBounds" />
          </mxGeometry>
        </mxCell>
        <mxCell id="JPM-YJVF7ZxOukphyHkG-89" value="" style="shape=partialRectangle;html=1;whiteSpace=wrap;connectable=0;strokeColor=inherit;overflow=hidden;fillColor=none;top=0;left=0;bottom=0;right=0;pointerEvents=1;fontSize=16;fontColor=#0a0a0a;" vertex="1" parent="1">
          <mxGeometry x="700" y="370" width="187" height="40" as="geometry">
            <mxRectangle width="187" height="40" as="alternateBounds" />
          </mxGeometry>
        </mxCell>
        <mxCell id="JPM-YJVF7ZxOukphyHkG-107" value="" style="shape=table;html=1;whiteSpace=wrap;startSize=0;container=1;collapsible=0;childLayout=tableLayout;strokeWidth=2;fillColor=#f5f5f5;gradientColor=#b3b3b3;strokeColor=#666666;" vertex="1" parent="1">
          <mxGeometry x="530" y="350" width="270" height="73" as="geometry" />
        </mxCell>
        <mxCell id="JPM-YJVF7ZxOukphyHkG-108" value="" style="shape=tableRow;horizontal=0;startSize=0;swimlaneHead=0;swimlaneBody=0;top=0;left=0;bottom=0;right=0;collapsible=0;dropTarget=0;fillColor=#f5f5f5;points=[[0,0.5],[1,0.5]];portConstraint=eastwest;gradientColor=#b3b3b3;strokeColor=#666666;" vertex="1" parent="JPM-YJVF7ZxOukphyHkG-107">
          <mxGeometry width="270" height="20" as="geometry" />
        </mxCell>
        <mxCell id="JPM-YJVF7ZxOukphyHkG-109" value="Header 1" style="shape=partialRectangle;html=1;whiteSpace=wrap;connectable=0;fillColor=#f5f5f5;top=0;left=0;bottom=0;right=0;overflow=hidden;fontStyle=1;gradientColor=#b3b3b3;strokeColor=#666666;" vertex="1" parent="JPM-YJVF7ZxOukphyHkG-108">
          <mxGeometry width="90" height="20" as="geometry">
            <mxRectangle width="90" height="20" as="alternateBounds" />
          </mxGeometry>
        </mxCell>
        <mxCell id="JPM-YJVF7ZxOukphyHkG-110" value="Header 2" style="shape=partialRectangle;html=1;whiteSpace=wrap;connectable=0;fillColor=#f5f5f5;top=0;left=0;bottom=0;right=0;overflow=hidden;fontStyle=1;gradientColor=#b3b3b3;strokeColor=#666666;" vertex="1" parent="JPM-YJVF7ZxOukphyHkG-108">
          <mxGeometry x="90" width="90" height="20" as="geometry">
            <mxRectangle width="90" height="20" as="alternateBounds" />
          </mxGeometry>
        </mxCell>
        <mxCell id="JPM-YJVF7ZxOukphyHkG-117" style="shape=partialRectangle;html=1;whiteSpace=wrap;connectable=0;fillColor=#f5f5f5;top=0;left=0;bottom=0;right=0;overflow=hidden;fontStyle=1;gradientColor=#b3b3b3;strokeColor=#666666;" vertex="1" parent="JPM-YJVF7ZxOukphyHkG-108">
          <mxGeometry x="180" width="90" height="20" as="geometry">
            <mxRectangle width="90" height="20" as="alternateBounds" />
          </mxGeometry>
        </mxCell>
        <mxCell id="JPM-YJVF7ZxOukphyHkG-111" value="" style="shape=tableRow;horizontal=0;startSize=0;swimlaneHead=0;swimlaneBody=0;top=0;left=0;bottom=0;right=0;collapsible=0;dropTarget=0;fillColor=#f5f5f5;points=[[0,0.5],[1,0.5]];portConstraint=eastwest;gradientColor=#b3b3b3;strokeColor=#666666;" vertex="1" parent="JPM-YJVF7ZxOukphyHkG-107">
          <mxGeometry y="20" width="270" height="26" as="geometry" />
        </mxCell>
        <mxCell id="JPM-YJVF7ZxOukphyHkG-112" value="row 1, cell 1" style="shape=partialRectangle;html=1;whiteSpace=wrap;connectable=0;fillColor=#f5f5f5;top=0;left=0;bottom=0;right=0;overflow=hidden;gradientColor=#b3b3b3;strokeColor=#666666;" vertex="1" parent="JPM-YJVF7ZxOukphyHkG-111">
          <mxGeometry width="90" height="26" as="geometry">
            <mxRectangle width="90" height="26" as="alternateBounds" />
          </mxGeometry>
        </mxCell>
        <mxCell id="JPM-YJVF7ZxOukphyHkG-113" value="row 1, cell 2" style="shape=partialRectangle;html=1;whiteSpace=wrap;connectable=0;fillColor=#f5f5f5;top=0;left=0;bottom=0;right=0;overflow=hidden;gradientColor=#b3b3b3;strokeColor=#666666;" vertex="1" parent="JPM-YJVF7ZxOukphyHkG-111">
          <mxGeometry x="90" width="90" height="26" as="geometry">
            <mxRectangle width="90" height="26" as="alternateBounds" />
          </mxGeometry>
        </mxCell>
        <mxCell id="JPM-YJVF7ZxOukphyHkG-118" style="shape=partialRectangle;html=1;whiteSpace=wrap;connectable=0;fillColor=#f5f5f5;top=0;left=0;bottom=0;right=0;overflow=hidden;gradientColor=#b3b3b3;strokeColor=#666666;" vertex="1" parent="JPM-YJVF7ZxOukphyHkG-111">
          <mxGeometry x="180" width="90" height="26" as="geometry">
            <mxRectangle width="90" height="26" as="alternateBounds" />
          </mxGeometry>
        </mxCell>
        <mxCell id="JPM-YJVF7ZxOukphyHkG-114" value="" style="shape=tableRow;horizontal=0;startSize=0;swimlaneHead=0;swimlaneBody=0;top=0;left=0;bottom=0;right=0;collapsible=0;dropTarget=0;fillColor=#f5f5f5;points=[[0,0.5],[1,0.5]];portConstraint=eastwest;gradientColor=#b3b3b3;strokeColor=#666666;" vertex="1" parent="JPM-YJVF7ZxOukphyHkG-107">
          <mxGeometry y="46" width="270" height="27" as="geometry" />
        </mxCell>
        <mxCell id="JPM-YJVF7ZxOukphyHkG-115" value="row 2, cell 1" style="shape=partialRectangle;html=1;whiteSpace=wrap;connectable=0;fillColor=#f5f5f5;top=0;left=0;bottom=0;right=0;overflow=hidden;gradientColor=#b3b3b3;strokeColor=#666666;" vertex="1" parent="JPM-YJVF7ZxOukphyHkG-114">
          <mxGeometry width="90" height="27" as="geometry">
            <mxRectangle width="90" height="27" as="alternateBounds" />
          </mxGeometry>
        </mxCell>
        <mxCell id="JPM-YJVF7ZxOukphyHkG-116" value="row 2, cell 2" style="shape=partialRectangle;html=1;whiteSpace=wrap;connectable=0;fillColor=#f5f5f5;top=0;left=0;bottom=0;right=0;overflow=hidden;gradientColor=#b3b3b3;strokeColor=#666666;" vertex="1" parent="JPM-YJVF7ZxOukphyHkG-114">
          <mxGeometry x="90" width="90" height="27" as="geometry">
            <mxRectangle width="90" height="27" as="alternateBounds" />
          </mxGeometry>
        </mxCell>
        <mxCell id="JPM-YJVF7ZxOukphyHkG-119" style="shape=partialRectangle;html=1;whiteSpace=wrap;connectable=0;fillColor=#f5f5f5;top=0;left=0;bottom=0;right=0;overflow=hidden;gradientColor=#b3b3b3;strokeColor=#666666;" vertex="1" parent="JPM-YJVF7ZxOukphyHkG-114">
          <mxGeometry x="180" width="90" height="27" as="geometry">
            <mxRectangle width="90" height="27" as="alternateBounds" />
          </mxGeometry>
        </mxCell>
      </root>
    </mxGraphModel>
  </diagram>
</mxfile>
